<?xml version="1.0" encoding="UTF-8"?>
<svg xmlns="http://www.w3.org/2000/svg" 
     fill="none" 
     viewBox="0 0 24 24" 
     stroke="currentColor"
     stroke-width="1.5"
     aria-hidden="true" 
     role="img"
     aria-label="CMS Icon">
    <style>
        .cms-document { 
            animation: float 4s ease-in-out infinite;
            transform-origin: 12px 12px;
        }
        .cms-edit { 
            animation: write 3s ease-in-out infinite;
            transform-origin: 18px 6px;
        }
        .cms-content { 
            animation: type 2s ease-in-out infinite;
        }
        
        @keyframes float {
            0%, 100% { transform: translateY(0px); }
            50% { transform: translateY(-2px); }
        }
        
        @keyframes write {
            0%, 100% { transform: rotate(0deg); }
            25% { transform: rotate(-5deg); }
            75% { transform: rotate(5deg); }
        }
        
        @keyframes type {
            0%, 100% { opacity: 0.7; }
            50% { opacity: 1; }
        }
        
        svg:hover .cms-document { 
            animation-duration: 2s; 
        }
        svg:hover .cms-edit { 
            animation-duration: 1.5s; 
        }
        svg:hover .cms-content { 
            animation-duration: 1s; 
        }
        
        @media (prefers-color-scheme: dark) {
            .cms-content { opacity: 0.8; }
            .cms-edit { opacity: 0.9; }
        }
        
        @media (prefers-reduced-motion: reduce) {
            .cms-document, .cms-edit, .cms-content { animation: none; }
        }
    </style>
    
    <!-- Document base -->
    <g class="cms-document">
        <path stroke-linecap="round" stroke-linejoin="round" d="M9 12h6m-6 4h6m2 5H7a2 2 0 01-2-2V5a2 2 0 012-2h5.586a1 1 0 01.707.293l5.414 5.414a1 1 0 01.293.707V19a2 2 0 01-2 2z" />
        <path stroke-linecap="round" stroke-linejoin="round" d="M12 3v6h6" opacity="0.6" />
    </g>
    
    <!-- Content lines -->
    <g class="cms-content">
        <path stroke-linecap="round" d="M9 12h6" opacity="0.8" />
        <path stroke-linecap="round" d="M9 14h4" opacity="0.6" />
        <path stroke-linecap="round" d="M9 16h6" opacity="0.8" />
        <path stroke-linecap="round" d="M9 18h3" opacity="0.6" />
    </g>
    
    <!-- Edit pencil -->
    <g class="cms-edit">
        <path stroke-linecap="round" stroke-linejoin="round" d="M15.232 5.232l3.536 3.536m-2.036-5.036a2.5 2.5 0 113.536 3.536L6.5 21.036H3v-3.572L16.732 3.732z" opacity="0.7" />
        <circle cx="18" cy="6" r="1" fill="currentColor" opacity="0.5" />
    </g>
    
    <!-- CMS indicators -->
    <circle cx="4" cy="8" r="0.5" fill="currentColor" opacity="0.6" />
    <circle cx="4" cy="12" r="0.5" fill="currentColor" opacity="0.4" />
    <circle cx="4" cy="16" r="0.5" fill="currentColor" opacity="0.6" />
    
    <!-- Management icons -->
    <path stroke-linecap="round" stroke-linejoin="round" d="M20 12h-2m2-4h-2m2 8h-2" opacity="0.5" stroke-width="1" />
</svg>
